<svg xmlns="http://www.w3.org/2000/svg" viewBox="0 0 17.5 20"><defs><style>.cls-1{fill:#140c0d;}</style></defs><g id="Camada_2" data-name="Camada 2"><g id="Camada_1-2" data-name="Camada 1"><path class="cls-1" d="M13.75,6.25H17.5V16.88A3.14,3.14,0,0,1,14.38,20H3.12a3,3,0,0,1-2.2-.92A3,3,0,0,1,0,16.88V6.25H3.75V5a5,5,0,1,1,10,0ZM6.25,5V6.25h5V5a2.43,2.43,0,0,0-.74-1.76A2.46,2.46,0,0,0,7,3.24,2.43,2.43,0,0,0,6.25,5ZM12.5,9.69a1,1,0,0,0,.94-.94.93.93,0,0,0-1.6-.66.92.92,0,0,0,0,1.32A.87.87,0,0,0,12.5,9.69ZM5,9.69a1,1,0,0,0,.94-.94A1,1,0,0,0,5,7.81a.87.87,0,0,0-.66.28.92.92,0,0,0,0,1.32A.87.87,0,0,0,5,9.69Z"/></g></g></svg>