<svg xmlns="http://www.w3.org/2000/svg" viewBox="0 0 22.51 17.5"><g id="Camada_2" data-name="Camada 2"><g id="Camada_1-2" data-name="Camada 1"><path d="M20.78,13.83a13.69,13.69,0,0,0,.94,1.52,4.55,4.55,0,0,0,.55.63.81.81,0,0,1,.23.47.77.77,0,0,1-.08.5,1,1,0,0,1-.33.39.78.78,0,0,1-.49.16A8.87,8.87,0,0,1,16.72,16a10.4,10.4,0,0,1-2.35.27A9.61,9.61,0,0,1,9.86,15.2a6.93,6.93,0,0,1-2.95-2.78c-.39-.05-.76-.12-1.13-.19A8.74,8.74,0,0,1,.9,13.75a.78.78,0,0,1-.49-.16,1,1,0,0,1-.33-.39A.71.71,0,0,1,0,12.7a.88.88,0,0,1,.23-.45,6.49,6.49,0,0,0,.53-.65,13.69,13.69,0,0,0,.94-1.52A5.21,5.21,0,0,1,0,6.25,5.09,5.09,0,0,1,1.09,3.12,7.56,7.56,0,0,1,4,.84,9.8,9.8,0,0,1,8.12,0a9.76,9.76,0,0,1,4.54,1.05,6.84,6.84,0,0,1,3,2.78,9.46,9.46,0,0,1,3.5,1.11A7,7,0,0,1,21.6,7.15,5,5,0,0,1,22.5,10,5.21,5.21,0,0,1,20.78,13.83ZM5.43,10.23l.78.16a7.68,7.68,0,0,0,1.91.23,8,8,0,0,0,3.11-.6,6.19,6.19,0,0,0,2.29-1.6,3.28,3.28,0,0,0,.85-2.17,3.28,3.28,0,0,0-.85-2.17,6.19,6.19,0,0,0-2.29-1.6,8,8,0,0,0-3.11-.6,7.93,7.93,0,0,0-3.1.6,6.19,6.19,0,0,0-2.29,1.6,3.29,3.29,0,0,0-.86,2.17,3.45,3.45,0,0,0,1.18,2.5l1,.94L3.4,10.94l-.31.54a6.52,6.52,0,0,0,1.68-.82Zm14,2.27A3.46,3.46,0,0,0,20.62,10a3.4,3.4,0,0,0-1.25-2.54,6.71,6.71,0,0,0-3.16-1.58l0,.39a5,5,0,0,1-.92,2.89,7.17,7.17,0,0,1-2.52,2.21,9.31,9.31,0,0,1-3.55,1.07,6,6,0,0,0,2.2,1.43,8,8,0,0,0,2.91.53,7.71,7.71,0,0,0,1.92-.24l.78-.16.66.43a6.52,6.52,0,0,0,1.68.82l-.31-.58-.58-1.21Z"/></g></g></svg>