<svg xmlns="http://www.w3.org/2000/svg" viewBox="0 0 8.94 8.94"><defs><style>.cls-1{fill:#222221;}</style></defs><g id="Camada_2" data-name="Camada 2"><g id="Camada_1-2" data-name="Camada 1"><path class="cls-1" d="M6.17,4.47,8.71,7a.77.77,0,0,1,.23.56.85.85,0,0,1-.23.58l-.56.56a.85.85,0,0,1-.58.23A.77.77,0,0,1,7,8.71L4.47,6.17,1.93,8.71a.77.77,0,0,1-.56.23.85.85,0,0,1-.58-.23L.23,8.15A.85.85,0,0,1,0,7.57.77.77,0,0,1,.23,7L2.77,4.47.23,1.93A.77.77,0,0,1,0,1.37.85.85,0,0,1,.23.79L.79.23A.85.85,0,0,1,1.37,0a.77.77,0,0,1,.56.23L4.47,2.77,7,.23A.77.77,0,0,1,7.57,0a.85.85,0,0,1,.58.23l.56.56a.85.85,0,0,1,.23.58.77.77,0,0,1-.23.56Z"/></g></g></svg>