<svg xmlns="http://www.w3.org/2000/svg" viewBox="0 0 14.53 14.53"><defs><style>.cls-1{fill:#222221;}</style></defs><g id="Camada_2" data-name="Camada 2"><g id="Camada_1-2" data-name="Camada 1"><path class="cls-1" d="M7.27,0A7.09,7.09,0,0,1,10.9,1a7.4,7.4,0,0,1,2.65,2.65,7.23,7.23,0,0,1,0,7.27,7.32,7.32,0,0,1-2.65,2.65,7.23,7.23,0,0,1-7.27,0A7.4,7.4,0,0,1,1,10.9,7.23,7.23,0,0,1,1,3.63,7.48,7.48,0,0,1,3.63,1,7.12,7.12,0,0,1,7.27,0Zm0,3.22a1.17,1.17,0,0,0-.87.37A1.18,1.18,0,0,0,6,4.45,1.23,1.23,0,0,0,7.27,5.68a1.18,1.18,0,0,0,.86-.36,1.21,1.21,0,0,0,.37-.87,1.19,1.19,0,0,0-.37-.86A1.15,1.15,0,0,0,7.27,3.22Zm1.64,7.44V10a.34.34,0,0,0-.11-.25.32.32,0,0,0-.25-.1H8.2V6.68a.34.34,0,0,0-.35-.35H6a.33.33,0,0,0-.25.1.34.34,0,0,0-.11.25v.7a.34.34,0,0,0,.11.25.33.33,0,0,0,.25.1h.35V9.61H6a.33.33,0,0,0-.25.1.34.34,0,0,0-.11.25v.7A.38.38,0,0,0,6,11H8.55a.33.33,0,0,0,.25-.11A.34.34,0,0,0,8.91,10.66Z"/></g></g></svg>