<svg xmlns="http://www.w3.org/2000/svg" viewBox="0 0 15 19"><defs><style>.cls-1{fill:#222221;}</style></defs><g id="Camada_2" data-name="Camada 2"><g id="Camada_1-2" data-name="Camada 1"><path class="cls-1" d="M5.75,0A.77.77,0,0,0,5,.75V1.5h5V.75A.77.77,0,0,0,9.25,0ZM.5,2a.5.5,0,0,0-.5.5V5a.5.5,0,0,0,.5.5h14A.5.5,0,0,0,15,5V2.5a.5.5,0,0,0-.5-.5Zm1,4V18.5A.5.5,0,0,0,2,19H13a.5.5,0,0,0,.5-.5V6Zm3,2.25a.5.5,0,0,1,.5.5v7.5a.5.5,0,0,1-1,0V8.75A.5.5,0,0,1,4.5,8.25Zm3,0a.5.5,0,0,1,.5.5v7.5a.5.5,0,0,1-1,0V8.75A.5.5,0,0,1,7.5,8.25Zm3,0a.5.5,0,0,1,.5.5v7.5a.5.5,0,0,1-1,0V8.75A.5.5,0,0,1,10.5,8.25Z"/></g></g></svg>