<svg xmlns="http://www.w3.org/2000/svg" viewBox="0 0 30 24"><defs><style>.cls-1{fill:#222221;}</style></defs><g id="Camada_2" data-name="Camada 2"><g id="Camada_1-2" data-name="Camada 1"><path class="cls-1" d="M29.25,16.5a.72.72,0,0,1,.75.75v1.5a.72.72,0,0,1-.75.75H27a4.51,4.51,0,0,1-7.69,3.19A4.37,4.37,0,0,1,18,19.5H12A4.47,4.47,0,0,1,7.5,24,4.47,4.47,0,0,1,3,19.5H2.25a2.14,2.14,0,0,1-1.59-.66A2.15,2.15,0,0,1,0,17.25v-15A2.14,2.14,0,0,1,.66.66,2.14,2.14,0,0,1,2.25,0h15a2.15,2.15,0,0,1,1.59.66,2.14,2.14,0,0,1,.66,1.59V4.5h2.06a2.17,2.17,0,0,1,1.6.66l4.68,4.68a2.17,2.17,0,0,1,.66,1.6V16.5ZM7.5,21.75a2.25,2.25,0,0,0,1.59-3.84,2.15,2.15,0,0,0-1.59-.66,2.25,2.25,0,0,0-1.59,3.84A2.14,2.14,0,0,0,7.5,21.75Zm15,0a2.25,2.25,0,0,0,1.59-3.84,2.25,2.25,0,1,0-3.18,3.18A2.14,2.14,0,0,0,22.5,21.75ZM26.25,12v-.56L21.56,6.75H19.5V12Z"/></g></g></svg>