<svg xmlns="http://www.w3.org/2000/svg" viewBox="0 0 20.03 17.5"><g id="Camada_2" data-name="Camada 2"><g id="Camada_1-2" data-name="Camada 1"><path d="M17.9,1.25a6,6,0,0,1,1.91,2.89,5.67,5.67,0,0,1,0,3.11,6,6,0,0,1-1.48,2.67l-6.84,7a2.08,2.08,0,0,1-3,0l-6.84-7A6,6,0,0,1,.21,7.25a5.48,5.48,0,0,1,0-3.11A5.88,5.88,0,0,1,2.12,1.25,5.08,5.08,0,0,1,4.66.08,6,6,0,0,1,7.53.31,6.2,6.2,0,0,1,10,1.84,6.2,6.2,0,0,1,12.49.31,6,6,0,0,1,15.36.08,5,5,0,0,1,17.9,1.25ZM17,8.59a4.22,4.22,0,0,0,1-1.81,3.85,3.85,0,0,0,0-2.13A3.82,3.82,0,0,0,16.69,2.7,3.6,3.6,0,0,0,14,1.88a3.92,3.92,0,0,0-2.63,1.25L10,4.49,8.64,3.13A3.92,3.92,0,0,0,6,1.88a3.6,3.6,0,0,0-2.68.82A3.82,3.82,0,0,0,2,4.65,3.85,3.85,0,0,0,2,6.78,4.22,4.22,0,0,0,3,8.59l6.87,7q.12.15.24,0Z"/></g></g></svg>