<svg viewBox="0 0 79 109"><path d="M7.69 69.81v-8.16c0-.82 0-.85-.86-.85h-6c-.82 0-.85 0-.85.86Q0 79.54 0 97.42a4.27 4.27 0 00.17.85h25.92v-6.69H7.69V69.81zM79 97.24V72h-6.47v18.6H42.77c-.94 0-.94 0-1 1v5.92a4.27 4.27 0 00.17.85h36.88a6.15 6.15 0 00.18-1.13zM51.51 69.87a19.84 19.84 0 003-5.43 22.42 22.42 0 001.25-5.65 29 29 0 00.2-4.57 36.18 36.18 0 00-.54-4.29 17 17 0 00-2.51-6.43 12.37 12.37 0 00-3.16-3.5 13.83 13.83 0 00-8-2.51c-5.45-.05-10.9 0-16.35 0a5.76 5.76 0 00-.69.07v37.23H40.9a15.5 15.5 0 003.4-.41 12.77 12.77 0 007.21-4.51zm-10.68-1.68a16 16 0 01-1.95.15h-6.69v-24.4h.91c2.5 0 5-.08 7.51 0s4.92 1 6.08 3.6a16.64 16.64 0 011 3.3 23.28 23.28 0 01.38 7.16A14.83 14.83 0 0146 64.78a7 7 0 01-5.17 3.41zm30.3-19c0 1 0 1 1 1h6.66V13h-26v6.46h18.34v29.73zm-34-36.25H.05a2.73 2.73 0 000 .37v25.18c0 .76 0 .79.83.79h5a5 5 0 00.62-.08V21.5c0-1 0-1 1-1h29.61zM5.46 8.22H.82v-8H0v8.7h5.46zM7.8.23H7v8.69h.8zm5.39 8.69l3-8.69h-.85L12.75 8 10.14.23h-.86l3 8.69zM18.5.23h-.82v8.69h.82zm3.31 6h4l1 2.73h.84L24.28.23h-.93L20 8.92h.84zm2-5.26l1.69 4.56h-3.41zm12.14 8a4.3 4.3 0 00.81-.16 3.08 3.08 0 00.75-.32 2.53 2.53 0 00.66-.54 3.16 3.16 0 00.49-.72 3.88 3.88 0 00.34-.91 6.39 6.39 0 00.18-.87v-.89a8 8 0 00-.06-.94 6 6 0 00-.23-1 4.81 4.81 0 00-.44-1 2.74 2.74 0 00-.71-.77 3.5 3.5 0 00-.62-.35 3.6 3.6 0 00-.66-.2 5.05 5.05 0 00-.68-.08h-3.71v8.7h3a8.06 8.06 0 00.86-.04zm-3-.66V.93h2A9.59 9.59 0 0136 1a2.49 2.49 0 01.91.27 2.26 2.26 0 01.75.61 3 3 0 01.45.8 3.73 3.73 0 01.23.93 8 8 0 01.06 1 7.5 7.5 0 01-.06.93 4.69 4.69 0 01-.23.93 3.53 3.53 0 01-.44.81 1.94 1.94 0 01-.71.59 3.15 3.15 0 01-1 .34 8.69 8.69 0 01-1 .06zm8.55-.41a3.7 3.7 0 001.26 1 4.48 4.48 0 003.52 0 3.7 3.7 0 001.26-1 4.48 4.48 0 00.77-1.45 6 6 0 00.25-1.77 6.05 6.05 0 00-.25-1.79 4.48 4.48 0 00-.77-1.47 3.63 3.63 0 00-1.28-1 4.13 4.13 0 00-1.8-.42 3.92 3.92 0 00-1.72.36 3.66 3.66 0 00-1.25 1 4.18 4.18 0 00-.76 1.45 5.78 5.78 0 00-.26 1.79 6 6 0 00.25 1.77 4.27 4.27 0 00.76 1.44zm0-4.68a3.83 3.83 0 01.58-1.24 2.78 2.78 0 011-.86A3 3 0 0144.49.7a3.25 3.25 0 011.35.3 2.66 2.66 0 011 .77A3.46 3.46 0 0147.5 3a5.44 5.44 0 01.23 1.63 5.84 5.84 0 01-.19 1.46A3.5 3.5 0 0147 7.28a2.75 2.75 0 01-1 .85 3 3 0 01-1.45.32 3.15 3.15 0 01-1.46-.31 2.75 2.75 0 01-1-.85 3.68 3.68 0 01-.58-1.23 5.92 5.92 0 01-.18-1.47 5.78 5.78 0 01.14-1.46zM54.85 8.8a2.45 2.45 0 00.89-.42 2 2 0 00.59-.76 2.81 2.81 0 00.21-1.15A2.36 2.36 0 0056.1 5a2 2 0 00-1.34-.71 2.08 2.08 0 00.51-.18 1.45 1.45 0 00.44-.35 1.72 1.72 0 00.29-.55 2.39 2.39 0 00.12-.79 2.31 2.31 0 00-.12-.89 1.71 1.71 0 00-.5-.7 2.27 2.27 0 00-.9-.44 4.53 4.53 0 00-1.3-.16h-3.13v8.69h3.54a5.11 5.11 0 001.14-.12zM51 .93h1.89A7.25 7.25 0 0154 1a2.27 2.27 0 01.75.25 1.09 1.09 0 01.42.46 1.62 1.62 0 01.13.7 2.14 2.14 0 01-.11.7 1.23 1.23 0 01-.38.52 1.82 1.82 0 01-.7.32 4.63 4.63 0 01-1.07.11H51zm0 7.29V4.77h2.18a6.63 6.63 0 011 .07 2.27 2.27 0 01.81.24 1.24 1.24 0 01.52.52 1.82 1.82 0 01.18.87 2.28 2.28 0 01-.16.91 1.22 1.22 0 01-.49.54 2.26 2.26 0 01-.83.24 9.88 9.88 0 01-1.17.06zm12.67 0H59v-8h-.8v8.7h5.46zm2.3-2h4l1 2.73h.84L68.43.23h-.93l-3.4 8.69h.84zm2-5.26l1.69 4.56h-3.42zm9.49 7a1.93 1.93 0 01-.68.39 3.31 3.31 0 01-1 .14 4 4 0 01-.93-.11 2.15 2.15 0 01-.79-.38 2 2 0 01-.54-.66 2.56 2.56 0 01-.26-1h-.8a3 3 0 00.24 1.24 2.38 2.38 0 00.65.88 3 3 0 001 .53 4.55 4.55 0 001.25.17 3.66 3.66 0 002.34-.66 2.27 2.27 0 00.83-1.87 2.34 2.34 0 00-.21-1 2 2 0 00-.56-.74 2.65 2.65 0 00-.8-.42 7.11 7.11 0 00-.93-.27l-1-.22a5 5 0 01-.85-.27 2.25 2.25 0 01-.65-.41 1.18 1.18 0 01-.33-.68 1.57 1.57 0 010-.68 1.57 1.57 0 01.35-.61 1.76 1.76 0 01.68-.45 2.74 2.74 0 011-.18 3 3 0 01.8.11 1.89 1.89 0 01.68.34 1.64 1.64 0 01.48.59 1.91 1.91 0 01.17.86h.79a2.83 2.83 0 00-.18-1 2.16 2.16 0 00-.55-.82 2.42 2.42 0 00-.9-.56A3.63 3.63 0 0075.6 0a3.81 3.81 0 00-1.27.19 2.8 2.8 0 00-.92.52 2.24 2.24 0 00-.56.75 2.19 2.19 0 00-.18.87 2.11 2.11 0 00.23 1.06 2.15 2.15 0 00.59.68 3 3 0 00.84.42 8.36 8.36 0 001 .27l1 .24a3.86 3.86 0 01.85.32 1.72 1.72 0 01.59.51 1.39 1.39 0 01.23.82 1.8 1.8 0 01-.13.69 1.49 1.49 0 01-.44.58zM3.1 105.9h2.25a5.48 5.48 0 01-.07.73 2.23 2.23 0 01-.22.66 1.9 1.9 0 01-.4.55 1.92 1.92 0 01-.5.36 2.27 2.27 0 01-.55.2 2.74 2.74 0 01-.56.06 2.25 2.25 0 01-1-.22 2.16 2.16 0 01-.76-.61 2.68 2.68 0 01-.48-.88 3.4 3.4 0 01-.16-1.06 5.89 5.89 0 01.14-1.3 3 3 0 01.45-1 2.26 2.26 0 01.78-.66 2.65 2.65 0 011.13-.23 2.46 2.46 0 01.72.11 2.23 2.23 0 01.62.3 2.29 2.29 0 01.48.5 2.11 2.11 0 01.28.67h.65a3 3 0 00-.36-.93 2.31 2.31 0 00-.62-.66 2.61 2.61 0 00-.82-.4 3.54 3.54 0 00-1-.13 3.22 3.22 0 00-1.37.27 2.63 2.63 0 00-1 .74 2.93 2.93 0 00-.57 1.11 4.63 4.63 0 00-.16 1.36A4.94 4.94 0 00.22 107a3 3 0 00.61 1.11 2.36 2.36 0 00.92.67 3 3 0 001.17.22 3.91 3.91 0 00.88-.09 2.37 2.37 0 00.69-.27 1.92 1.92 0 00.52-.42 2.7 2.7 0 00.4-.54v1.14H6v-3.46H3.1zm6.39-3.77l-2.63 6.69h.65l.79-2.1h3l.77 2.1h.65l-2.56-6.69zm-1 4.05l1.31-3.51 1.31 3.51zm5.78-4.05h-.63v6.69h4.21v-.54h-3.56zm5.15 3.49h3.44v-.54h-3.42v-2.41h3.81v-.54h-4.44v6.69h4.54v-.54h-3.91zm9.77 2.76a3.27 3.27 0 01-.05-.41v-.63a4.89 4.89 0 000-.54 1.78 1.78 0 00-.11-.53 1.24 1.24 0 00-.25-.45 1 1 0 00-.46-.3 1.92 1.92 0 00.83-.63 1.76 1.76 0 00.25-1 1.53 1.53 0 00-.58-1.34 3 3 0 00-1.69-.41h-2.66v6.68h.63v-3h2a3.19 3.19 0 01.45 0 1.56 1.56 0 01.4.11 1 1 0 01.3.25 1.14 1.14 0 01.18.43 4.93 4.93 0 01.05.5v.64a6.2 6.2 0 00.06.62 1.18 1.18 0 00.15.46h.69a.4.4 0 01-.11-.14 1 1 0 01-.06-.31zm-1.49-3.21a2.73 2.73 0 01-.66.07h-2v-2.57h2a3.08 3.08 0 01.61 0 1.48 1.48 0 01.52.2 1 1 0 01.36.38 1.23 1.23 0 01.13.61 1.28 1.28 0 01-.13.61 1.15 1.15 0 01-.35.41 1.46 1.46 0 01-.46.29zm3.16 3.65h.64v-6.69h-.64zm4.37-6.69l-2.62 6.69h.65l.79-2.1h3l.77 2.1h.64L36 102.13zm-1 4.05l1.31-3.51 1.3 3.51zm13-2.18a4 4 0 00-.34-.73 2.06 2.06 0 00-.55-.59 2.27 2.27 0 00-.48-.27 2.21 2.21 0 00-.5-.15 3.07 3.07 0 00-.53-.07H42v6.69h2.94a3.19 3.19 0 00.63-.12 2.41 2.41 0 00.57-.25 2 2 0 00.51-.42 2.34 2.34 0 00.38-.55 3.45 3.45 0 00.25-.63 5.1 5.1 0 00.13-.68 5 5 0 000-.67 4.72 4.72 0 00-.05-.73 4.28 4.28 0 00-.13-.83zm-.46 2.23a3.2 3.2 0 01-.17.71 2.72 2.72 0 01-.34.63 1.54 1.54 0 01-.55.46 2.34 2.34 0 01-.76.25 5.18 5.18 0 01-.81 0h-1.51v-5.61h1.51a7.56 7.56 0 01.83 0 1.8 1.8 0 01.7.21 1.69 1.69 0 01.58.47 2.36 2.36 0 01.35.62 2.92 2.92 0 01.18.72 6.12 6.12 0 010 .74 4.39 4.39 0 01-.01.75zm2.56-.56h3.44v-.54h-3.44v-2.41h3.81v-.54H48.7v6.69h4.53v-.54h-3.9zm9.67-3.54l-2.62 6.69H57l.78-2.1h3.05l.76 2.1h.65l-2.56-6.69zm-1 4.05l1.3-3.51 1.31 3.51zm9.88 2.2a3 3 0 01-.06-.41v-1.17a2.76 2.76 0 00-.11-.53 1.41 1.41 0 00-.25-.45 1.09 1.09 0 00-.46-.3 1.89 1.89 0 00.82-.63 1.75 1.75 0 00.26-1 1.53 1.53 0 00-.58-1.34 3 3 0 00-1.69-.41h-2.7v6.68h.63v-3h2a3.4 3.4 0 01.45 0 1.6 1.6 0 01.39.11.81.81 0 01.3.25.89.89 0 01.18.43 3 3 0 01.06.5v.64c0 .22 0 .42.07.62a1 1 0 00.14.46h.7a.31.31 0 01-.11-.14.67.67 0 01-.06-.31zm-1.5-3.21a2.7 2.7 0 01-.65.07h-2v-2.57h2a2.92 2.92 0 01.6 0 1.41 1.41 0 01.52.2.94.94 0 01.36.38 1.22 1.22 0 01.14.61 1.28 1.28 0 01-.13.61 1.25 1.25 0 01-.35.41 1.51 1.51 0 01-.51.29zm2.34-2.5h2.12v6.15h.63v-6.15h2.11v-.54H68.7zm6.39 5.61v-2.66h3.44v-.54h-3.46v-2.41h3.81v-.54h-4.44v6.69H79v-.54z"/></svg>