<svg viewBox="0 0 22.51 17.5"><path d="M20.78 13.83a13.69 13.69 0 00.94 1.52 4.55 4.55 0 00.55.63.81.81 0 01.23.47.77.77 0 01-.08.5 1 1 0 01-.33.39.78.78 0 01-.49.16 8.87 8.87 0 01-4.88-1.5 10.4 10.4 0 01-2.35.27 9.61 9.61 0 01-4.51-1.07 6.93 6.93 0 01-2.95-2.78c-.39-.05-.76-.12-1.13-.19A8.74 8.74 0 01.9 13.75a.78.78 0 01-.49-.16 1 1 0 01-.33-.39.71.71 0 01-.08-.5.88.88 0 01.23-.45 6.49 6.49 0 00.53-.65 13.69 13.69 0 00.94-1.52A5.21 5.21 0 010 6.25a5.09 5.09 0 011.09-3.13A7.56 7.56 0 014 .84 9.8 9.8 0 018.12 0a9.76 9.76 0 014.54 1.05 6.84 6.84 0 013 2.78 9.46 9.46 0 013.5 1.11 7 7 0 012.44 2.21 5 5 0 01.9 2.85 5.21 5.21 0 01-1.72 3.83zm-15.35-3.6l.78.16a7.68 7.68 0 001.91.23 8 8 0 003.11-.6 6.19 6.19 0 002.29-1.6 3.28 3.28 0 00.85-2.17 3.28 3.28 0 00-.85-2.17 6.19 6.19 0 00-2.29-1.6 8 8 0 00-3.11-.6 7.93 7.93 0 00-3.1.6 6.19 6.19 0 00-2.29 1.6 3.29 3.29 0 00-.86 2.17 3.45 3.45 0 001.18 2.5l1 .94-.65 1.25-.31.54a6.52 6.52 0 001.68-.82zm14 2.27a3.46 3.46 0 001.19-2.5 3.4 3.4 0 00-1.25-2.54 6.71 6.71 0 00-3.16-1.58v.39a5 5 0 01-.92 2.89 7.17 7.17 0 01-2.52 2.21 9.31 9.31 0 01-3.55 1.07 6 6 0 002.2 1.43 8 8 0 002.91.53 7.71 7.71 0 001.92-.24l.78-.16.66.43a6.52 6.52 0 001.68.82l-.31-.58-.58-1.21z"/></svg>