<svg viewBox="0 0 30 24"><path d="M29.25 16.5a.72.72 0 01.75.75v1.5a.72.72 0 01-.75.75H27a4.51 4.51 0 01-7.69 3.19A4.37 4.37 0 0118 19.5h-6A4.47 4.47 0 017.5 24 4.47 4.47 0 013 19.5h-.75a2.14 2.14 0 01-1.59-.66A2.15 2.15 0 010 17.25v-15A2.14 2.14 0 01.66.66 2.14 2.14 0 012.25 0h15a2.15 2.15 0 011.59.66 2.14 2.14 0 01.66 1.59V4.5h2.06a2.17 2.17 0 011.6.66l4.68 4.68a2.17 2.17 0 01.66 1.6v5.06zM7.5 21.75a2.25 2.25 0 001.59-3.84 2.15 2.15 0 00-1.59-.66 2.25 2.25 0 00-1.59 3.84 2.14 2.14 0 001.59.66zm15 0a2.25 2.25 0 001.59-3.84 2.25 2.25 0 10-3.18 3.18 2.14 2.14 0 001.59.66zM26.25 12v-.56l-4.69-4.69H19.5V12z"/></svg>