<svg viewBox="0 0 20.03 17.5"><path d="M17.9 1.25a6 6 0 011.91 2.89 5.67 5.67 0 010 3.11 6 6 0 01-1.48 2.67l-6.84 7a2.08 2.08 0 01-3 0l-6.84-7A6 6 0 01.21 7.25a5.48 5.48 0 010-3.11 5.88 5.88 0 011.91-2.89A5.08 5.08 0 014.66.08a6 6 0 012.87.23A6.2 6.2 0 0110 1.84 6.2 6.2 0 0112.49.31a6 6 0 012.87-.23 5 5 0 012.54 1.17zM17 8.59a4.22 4.22 0 001-1.81 3.85 3.85 0 000-2.13 3.82 3.82 0 00-1.31-1.95A3.6 3.6 0 0014 1.88a3.92 3.92 0 00-2.63 1.25L10 4.49 8.64 3.13A3.92 3.92 0 006 1.88a3.6 3.6 0 00-2.68.82A3.82 3.82 0 002 4.65a3.85 3.85 0 000 2.13 4.22 4.22 0 001 1.81l6.87 7q.12.15.24 0z"/></svg>